<svg version="1.1" xmlns="http://www.w3.org/2000/svg" viewBox="0 0 2062.5204247006386 1195.9999999999995" width="2062.5204247006386" height="1195.9999999999995">
  <!-- svg-source:excalidraw -->
  
  <defs>
    <style class="style-fonts">
      @font-face {
        font-family: "Virgil";
        src: url("https://excalidraw.com/Virgil.woff2");
      }
      @font-face {
        font-family: "Cascadia";
        src: url("https://excalidraw.com/Cascadia.woff2");
      }
    </style>
    
  </defs>
  <rect x="0" y="0" width="2062.5204247006386" height="1195.9999999999995" fill="#ffffff"></rect><g stroke-linecap="round"><g transform="translate(1637.4763680053372 733.2159169748302) rotate(0 207.01279423111225 19.539179999459463)"><path d="M1.13 -1 C1.47 4.36, 0.45 23.75, 1.63 31.99 C2.81 40.24, 1.01 45.13, 8.22 48.46 C15.43 51.79, 14.68 51.22, 44.87 51.99 C75.06 52.76, 138.56 53, 189.34 53.05 C240.13 53.11, 315.84 52.41, 349.57 52.33 C383.31 52.25, 382.28 53.47, 391.75 52.57 C401.22 51.66, 403.05 49.74, 406.4 46.89 C409.76 44.04, 410.87 41.34, 411.9 35.44 C412.93 29.54, 413 17.93, 412.59 11.49 C412.18 5.05, 412.77 0.4, 409.42 -3.2 C406.08 -6.8, 402.74 -8.56, 392.54 -10.13 C382.33 -11.7, 382.46 -12.12, 348.21 -12.63 C313.95 -13.14, 238.1 -12.81, 187 -13.18 C135.9 -13.55, 71.62 -15.25, 41.63 -14.86 C11.63 -14.46, 14.05 -13.46, 7.04 -10.78 C0.03 -8.11, 0.63 -0.58, -0.43 1.19 M0.26 1.09 C0.54 6.6, -0.29 25.15, 0.99 33.17 C2.26 41.19, 0.58 45.85, 7.9 49.2 C15.21 52.55, 14.83 52.5, 44.88 53.27 C74.93 54.04, 137.72 54.15, 188.21 53.81 C238.7 53.46, 313.85 51.63, 347.81 51.19 C381.78 50.75, 382.42 52, 392 51.19 C401.57 50.37, 401.64 49.14, 405.26 46.3 C408.88 43.46, 412.41 40, 413.74 34.15 C415.06 28.29, 414.38 17.26, 413.2 11.17 C412.02 5.07, 409.76 1.16, 406.66 -2.42 C403.56 -6, 404.35 -8.47, 394.61 -10.34 C384.88 -12.21, 382.95 -13.11, 348.24 -13.63 C313.52 -14.15, 237.42 -13.68, 186.32 -13.46 C135.23 -13.25, 71.47 -12.47, 41.67 -12.36 C11.87 -12.24, 14.18 -14.64, 7.53 -12.77 C0.87 -10.89, 3.04 -3.24, 1.74 -1.09" stroke="#000000" stroke-width="1" fill="none"></path></g></g><mask></mask><g stroke-linecap="round"><g transform="translate(1661.2784477375544 734.1186204730325) rotate(0 111.04598776883529 18.117203907563777)"><path d="M0.58 -0.69 C30.37 -0.66, 143.19 -1.8, 179.89 -0.84 C216.59 0.12, 212.55 1.53, 220.76 5.09 C228.96 8.65, 229.04 15.45, 229.13 20.52 C229.23 25.58, 229.08 32.84, 221.31 35.46 C213.55 38.09, 212.49 36.3, 182.57 36.28 C152.64 36.26, 72.65 35.93, 41.78 35.33 C10.9 34.74, 5.32 37.34, -2.67 32.72 C-10.65 28.09, -6.76 13.08, -6.13 7.56 C-5.5 2.05, 0.13 0.8, 1.1 -0.39 M-0.58 1.57 C29.03 1.79, 142.66 -0.71, 179.38 0.13 C216.1 0.96, 211.36 3.55, 219.75 6.58 C228.14 9.62, 229.62 13.46, 229.72 18.33 C229.82 23.19, 228.02 32.94, 220.33 35.75 C212.64 38.57, 213.25 34.93, 183.58 35.2 C153.91 35.48, 73.54 37.86, 42.3 37.4 C11.06 36.95, 3.92 37.64, -3.84 32.46 C-11.61 27.28, -4.74 11.89, -4.3 6.31 C-3.87 0.72, -1.9 -0.26, -1.21 -1.05" stroke="#000000" stroke-width="1" fill="none"></path></g></g><mask></mask><g stroke-linecap="round"><g transform="translate(1952.7199265898687 742.5525874047286) rotate(0 18.553751731453417 8.255212312066448)"><path d="M0.84 -1.09 C1.92 -2.4, 1.36 -7.83, 7.05 -8.55 C12.74 -9.28, 29.85 -8.68, 35 -5.44 C40.15 -2.21, 38.28 5.61, 37.96 10.87 C37.64 16.12, 38.21 23.47, 33.09 26.09 C27.98 28.7, 12.72 27.49, 7.27 26.55 C1.81 25.6, 1.68 23.76, 0.38 20.42 C-0.92 17.08, -0.66 9.98, -0.54 6.51 C-0.42 3.04, 1.06 0.63, 1.1 -0.39 M-0.18 0.95 C0.65 -0.67, 0.07 -9.1, 5.86 -10.5 C11.65 -11.9, 29.1 -11.15, 34.57 -7.42 C40.04 -3.69, 38.64 6.22, 38.69 11.87 C38.74 17.51, 39.91 24.21, 34.88 26.44 C29.86 28.68, 14.23 26.48, 8.56 25.26 C2.89 24.05, 2.59 22.32, 0.87 19.16 C-0.84 15.99, -1.58 9.21, -1.73 6.3 C-1.87 3.38, -0.33 2.7, 0.01 1.68" stroke="#000000" stroke-width="1" fill="none"></path></g></g><mask></mask><g stroke-linecap="round"><g transform="translate(1999.8515100027669 742.4950427229513) rotate(0 18.74801763919436 9.92659339078557)"><path d="M-0.46 0.34 C0.29 -0.61, -0.62 -5.68, 5.34 -6.79 C11.3 -7.9, 30.13 -9.3, 35.28 -6.33 C40.44 -3.37, 36.61 5.43, 36.27 11 C35.94 16.57, 37.95 24.33, 33.28 27.09 C28.61 29.84, 13.74 28.33, 8.26 27.53 C2.77 26.72, 1.54 25.22, 0.37 22.26 C-0.81 19.29, 1.33 13.38, 1.21 9.74 C1.1 6.1, -0.06 2.09, -0.33 0.41 M1.5 -0.53 C2.08 -1.73, -0.85 -7.78, 4.73 -8.55 C10.31 -9.31, 29.77 -8.55, 35 -5.12 C40.23 -1.68, 36.68 6.68, 36.12 12.07 C35.57 17.46, 36.12 24.82, 31.69 27.23 C27.25 29.65, 14.66 27.6, 9.52 26.57 C4.38 25.54, 2.31 23.94, 0.85 21.04 C-0.61 18.15, 0.66 12.83, 0.76 9.19 C0.87 5.56, 1.59 0.93, 1.49 -0.76" stroke="#000000" stroke-width="1" fill="none"></path></g></g><mask></mask><g stroke-linecap="round"><g transform="translate(1637.4763680053372 801.6774554363685) rotate(0 206.8056816594284 20.246437383422688)"><path d="M0.64 0.69 C1.05 6.05, 0.98 24.36, 1.98 32.49 C2.98 40.62, -0.57 46.37, 6.62 49.49 C13.81 52.6, 14.81 50.68, 45.1 51.19 C75.4 51.69, 137.87 52.26, 188.41 52.52 C238.95 52.78, 314.15 52.82, 348.35 52.77 C382.55 52.72, 383.95 53.07, 393.61 52.24 C403.27 51.4, 403.27 50.65, 406.3 47.77 C409.34 44.89, 410.7 41.07, 411.81 34.95 C412.92 28.84, 413.62 17.55, 412.95 11.07 C412.28 4.58, 411.31 -0.5, 407.78 -3.96 C404.26 -7.43, 401.76 -8.54, 391.82 -9.73 C381.88 -10.92, 382.19 -10.53, 348.15 -11.11 C314.12 -11.68, 238.66 -12.85, 187.61 -13.17 C136.56 -13.49, 71.74 -13.4, 41.83 -13.03 C11.92 -12.65, 15.25 -12.95, 8.12 -10.91 C0.99 -8.87, 0.31 -2.43, -0.96 -0.8 M-0.48 0.01 C-0.11 5.53, -0.08 25.46, 1.52 33.92 C3.12 42.38, 1.83 47.75, 9.12 50.77 C16.4 53.79, 15.01 51.68, 45.23 52.05 C75.46 52.42, 139.72 53.02, 190.45 52.99 C241.18 52.96, 316.14 51.63, 349.6 51.86 C383.05 52.08, 381.92 55.05, 391.17 54.35 C400.42 53.64, 401.37 50.52, 405.11 47.64 C408.84 44.76, 412.16 43.24, 413.6 37.06 C415.04 30.87, 414.71 17.3, 413.74 10.52 C412.78 3.75, 411.19 -0.21, 407.82 -3.58 C404.45 -6.96, 403.46 -8.44, 393.52 -9.73 C383.58 -11.02, 382.53 -10.68, 348.15 -11.3 C313.78 -11.92, 238.29 -13.12, 187.26 -13.44 C136.23 -13.77, 71.66 -13.31, 41.98 -13.23 C12.3 -13.15, 16.02 -15.09, 9.18 -12.96 C2.34 -10.83, 2.55 -2.4, 0.94 -0.47" stroke="#000000" stroke-width="1" fill="none"></path></g></g><mask></mask><g stroke-linecap="round"><g transform="translate(1661.2784477375544 802.5801589345708) rotate(0 109.7494775133315 17.900969316737502)"><path d="M0.93 -0.19 C30.53 -0.28, 141.61 -0.56, 178.29 0.19 C214.97 0.93, 212.67 0.99, 220.99 4.29 C229.31 7.59, 228.35 14.71, 228.2 19.98 C228.05 25.25, 227.38 33.24, 220.09 35.9 C212.79 38.56, 214.16 35.9, 184.43 35.95 C154.69 36, 72.87 36.83, 41.68 36.21 C10.48 35.59, 5.15 37.07, -2.76 32.23 C-10.66 27.38, -6.14 12.7, -5.77 7.14 C-5.4 1.58, -1.33 -0.1, -0.54 -1.15 M-0.05 -1.34 C29.89 -1.29, 143.91 0.57, 180.6 1.69 C217.29 2.81, 212.16 2.11, 220.11 5.36 C228.05 8.61, 227.96 15.99, 228.3 21.17 C228.63 26.35, 229.71 34.17, 222.11 36.42 C214.52 38.68, 212.75 34.93, 182.76 34.7 C152.76 34.48, 73.27 35.58, 42.15 35.08 C11.03 34.58, 4.28 36.61, -3.98 31.71 C-12.24 26.81, -8.07 10.71, -7.42 5.66 C-6.76 0.62, -1.08 2.64, -0.06 1.45" stroke="#000000" stroke-width="1" fill="none"></path></g></g><mask></mask><g stroke-linecap="round"><g transform="translate(1952.7199265898687 811.0141258662668) rotate(0 18.290475804714674 9.153274659102237)"><path d="M-0.76 -0.06 C0.3 -1.59, 1.48 -8.37, 7.28 -9.36 C13.09 -10.34, 29.16 -9.42, 34.07 -5.98 C38.97 -2.54, 36.58 6.01, 36.73 11.3 C36.88 16.59, 39.88 23.07, 34.95 25.76 C30.03 28.45, 12.94 28.4, 7.17 27.43 C1.39 26.45, 1.52 23.48, 0.29 19.93 C-0.93 16.37, -0.05 9.6, -0.18 6.09 C-0.32 2.57, -0.4 -0.27, -0.54 -1.15 M1.04 -1.14 C1.84 -2.49, 0.87 -7.49, 6.22 -8.06 C11.57 -8.64, 28.05 -8.01, 33.15 -4.58 C38.25 -1.14, 36.67 7.45, 36.82 12.54 C36.97 17.62, 38.79 23.6, 34.06 25.94 C29.32 28.29, 13.96 27.25, 8.41 26.6 C2.85 25.96, 2.33 25.56, 0.74 22.07 C-0.86 18.58, -1.25 9.24, -1.18 5.65 C-1.11 2.06, 1.1 1.33, 1.16 0.52" stroke="#000000" stroke-width="1" fill="none"></path></g></g><mask></mask><g stroke-linecap="round"><g transform="translate(1999.8515100027669 810.9565811844896) rotate(0 18.29378193558682 10.62645152236334)"><path d="M-0.23 -0.47 C0.64 -1.68, -1.3 -6.42, 4.41 -7.32 C10.12 -8.23, 28.43 -8.89, 34.05 -5.89 C39.67 -2.9, 38.28 5.03, 38.13 10.67 C37.99 16.31, 38.17 25.24, 33.18 27.96 C28.18 30.69, 13.58 28.06, 8.17 27.04 C2.76 26.02, 2.16 24.85, 0.72 21.84 C-0.71 18.83, -0.13 12.48, -0.43 8.98 C-0.72 5.47, -1.04 2.11, -1.04 0.81 M-1.8 -1.76 C-1.06 -2.74, -2.51 -5.25, 3.31 -5.7 C9.13 -6.15, 27.8 -7.33, 33.13 -4.45 C38.46 -1.57, 34.95 6.07, 35.3 11.57 C35.64 17.07, 39.51 26.19, 35.19 28.57 C30.87 30.95, 15.02 27.19, 9.38 25.82 C3.75 24.46, 2.64 22.75, 1.4 20.4 C0.15 18.04, 2.09 15.12, 1.92 11.69 C1.76 8.27, 0.7 1.58, 0.4 -0.15" stroke="#000000" stroke-width="1" fill="none"></path></g></g><mask></mask><g stroke-linecap="round"><g transform="translate(1637.4763680053372 868.6005323594458) rotate(0 207.0656997951735 19.661519874778094)"><path d="M-0.29 0.16 C-0.13 5.73, -0.71 24.76, 0.75 32.93 C2.21 41.09, 1.1 45.97, 8.48 49.16 C15.85 52.35, 15.03 51.59, 45 52.07 C74.98 52.54, 137.71 51.98, 188.32 52.03 C238.94 52.07, 314.76 52.44, 348.7 52.35 C382.64 52.25, 382.49 52.17, 391.97 51.48 C401.45 50.78, 402.29 50.67, 405.59 48.17 C408.88 45.67, 410.43 42.66, 411.76 36.48 C413.08 30.3, 414.19 17.52, 413.56 11.08 C412.93 4.64, 411.43 1.35, 407.99 -2.14 C404.54 -5.62, 402.96 -8.03, 392.9 -9.86 C382.84 -11.68, 381.87 -12.39, 347.62 -13.1 C313.38 -13.81, 238.33 -14.12, 187.44 -14.12 C136.56 -14.12, 72.07 -13.46, 42.32 -13.09 C12.56 -12.73, 15.94 -14.08, 8.92 -11.92 C1.91 -9.76, 1.91 -2.13, 0.22 -0.13 M1.76 -0.8 C1.76 4.42, -1.44 22.42, -0.36 30.93 C0.73 39.44, 0.72 46.53, 8.29 50.27 C15.86 54.01, 14.74 53.06, 45.08 53.38 C75.42 53.71, 139.47 52.61, 190.31 52.24 C241.16 51.88, 316.47 51.06, 350.14 51.21 C383.81 51.37, 382.74 53.68, 392.33 53.19 C401.92 52.69, 404.14 51.16, 407.67 48.25 C411.2 45.34, 412.35 42.01, 413.52 35.72 C414.68 29.44, 415.58 17.24, 414.68 10.54 C413.78 3.85, 411.99 -1.04, 408.13 -4.46 C404.27 -7.87, 401.64 -8.88, 391.51 -9.92 C381.38 -10.96, 381.43 -10.46, 347.35 -10.68 C313.26 -10.9, 237.77 -10.8, 187 -11.24 C136.23 -11.68, 72.77 -13.4, 42.72 -13.33 C12.68 -13.26, 14.01 -13.15, 6.74 -10.84 C-0.54 -8.53, 0.11 -1.33, -0.91 0.55" stroke="#000000" stroke-width="1" fill="none"></path></g></g><mask></mask><g stroke-linecap="round"><g transform="translate(1661.2784477375544 869.5032358576481) rotate(0 109.80819198776908 18.43672768952615)"><path d="M-0.3 0.25 C29.77 0.2, 143.28 -0.96, 180.15 -0.14 C217.01 0.68, 212.9 1.89, 220.89 5.16 C228.88 8.44, 228.19 14.44, 228.11 19.49 C228.04 24.54, 228 32.86, 220.44 35.48 C212.89 38.1, 212.7 35, 182.79 35.19 C152.87 35.38, 71.89 36.85, 40.96 36.61 C10.03 36.37, 4.88 38.66, -2.81 33.75 C-10.5 28.84, -5.57 12.67, -5.16 7.15 C-4.75 1.64, -1.2 1.75, -0.34 0.68 M1.74 -0.67 C31.77 -0.57, 143.41 0.57, 179.78 1.19 C216.15 1.81, 211.89 -0.17, 219.95 3.04 C228.02 6.24, 228.32 14.97, 228.16 20.42 C228 25.88, 226.38 32.98, 219 35.78 C211.63 38.57, 213.57 37.22, 183.91 37.2 C154.26 37.19, 72.38 36.22, 41.05 35.69 C9.73 35.17, 3.86 39.04, -4.06 34.03 C-11.99 29.03, -7.2 11.26, -6.48 5.68 C-5.76 0.11, -0.89 1.8, 0.25 0.58" stroke="#000000" stroke-width="1" fill="none"></path></g></g><mask></mask><g stroke-linecap="round"><g transform="translate(1952.7199265898687 877.937202789344) rotate(0 18.97634971745697 8.768824946314624)"><path d="M1.1 -0.39 C2.35 -1.84, 1.7 -7.47, 7.18 -8.48 C12.66 -9.49, 28.99 -9.7, 33.98 -6.47 C38.96 -3.24, 37.2 5.64, 37.09 10.88 C36.98 16.13, 38.42 22.17, 33.31 25 C28.21 27.82, 11.96 28.42, 6.45 27.83 C0.94 27.24, 1.24 25.07, 0.24 21.45 C-0.77 17.83, 0.52 9.56, 0.43 6.1 C0.33 2.64, -0.27 1.58, -0.34 0.68 M0.22 -1.64 C1.31 -3.48, 0.6 -9.77, 6.06 -10.39 C11.53 -11, 27.8 -9.04, 33.01 -5.33 C38.23 -1.61, 37 6.87, 37.36 11.89 C37.73 16.91, 40.23 22.23, 35.22 24.78 C30.21 27.34, 13.08 27.89, 7.31 27.21 C1.55 26.54, 1.91 24.32, 0.65 20.73 C-0.61 17.14, -0.38 9.19, -0.25 5.67 C-0.11 2.16, 1.29 0.49, 1.47 -0.35" stroke="#000000" stroke-width="1" fill="none"></path></g></g><mask></mask><g stroke-linecap="round"><g transform="translate(1999.8515100027669 877.8796581075668) rotate(0 17.89069358802476 10.96404903169639)"><path d="M-0.33 0.41 C0.21 -0.83, -1.47 -6.69, 4.32 -7.81 C10.11 -8.93, 29.05 -9.27, 34.41 -6.32 C39.77 -3.36, 36.82 4.13, 36.49 9.91 C36.17 15.69, 37.19 25.26, 32.46 28.37 C27.73 31.47, 13.3 29.65, 8.11 28.56 C2.93 27.47, 2.73 24.81, 1.34 21.85 C-0.05 18.89, -0.01 14.33, -0.23 10.8 C-0.44 7.28, 0.16 2.62, 0.04 0.68 M1.7 -0.42 C1.95 -1.45, -2.16 -5.67, 3.17 -6.45 C8.5 -7.23, 28.13 -7.9, 33.67 -5.09 C39.22 -2.28, 36.39 4.7, 36.46 10.41 C36.53 16.12, 38.63 26.23, 34.1 29.18 C29.57 32.14, 14.59 29.61, 9.3 28.15 C4 26.69, 4.12 23.31, 2.33 20.42 C0.54 17.53, -0.77 14.28, -1.43 10.82 C-2.09 7.36, -1.73 1.74, -1.61 -0.34" stroke="#000000" stroke-width="1" fill="none"></path></g></g><mask></mask><g stroke-linecap="round"><g transform="translate(25.979585516403915 732.6604765531239) rotate(0 227.26466397909851 0.39614372708373935)"><path d="M-0.49 0.76 C75.31 0.6, 379.13 -0.18, 455.02 -0.12 M1.46 0.11 C77.09 0.01, 378.72 0.5, 454.15 0.92" stroke="#000000" stroke-width="1" fill="none"></path></g></g><mask></mask><g stroke-linecap="round" transform="translate(40.58865222202718 699.093533012303) rotate(0 8.908496227603976 8.777821820014964)"><path d="M8.82 0.84 C10.48 1.01, 12.42 1.7, 13.84 2.88 C15.26 4.07, 16.93 6.13, 17.36 7.96 C17.8 9.78, 17.4 12.45, 16.47 13.83 C15.54 15.21, 13.69 15.73, 11.78 16.25 C9.88 16.78, 6.86 17.63, 5.05 16.97 C3.23 16.32, 1.85 13.83, 0.9 12.33 C-0.06 10.82, -1.1 9.73, -0.68 7.97 C-0.27 6.21, 1.71 3.22, 3.37 1.78 C5.03 0.33, 8.09 -0.5, 9.26 -0.72 C10.43 -0.93, 10.45 0.27, 10.4 0.48 M10.8 0.67 C12.54 1.04, 16.2 2.44, 17.33 4.14 C18.46 5.84, 17.95 9.18, 17.58 10.9 C17.21 12.62, 16.54 13.46, 15.09 14.46 C13.64 15.45, 10.66 16.85, 8.89 16.88 C7.13 16.91, 5.69 15.9, 4.49 14.64 C3.3 13.39, 2.13 11.12, 1.72 9.36 C1.31 7.59, 1.34 5.56, 2.03 4.03 C2.71 2.5, 4.13 0.99, 5.83 0.18 C7.52 -0.62, 11.51 -0.64, 12.22 -0.81 C12.93 -0.99, 10.09 -0.97, 10.07 -0.85" stroke="#000000" stroke-width="1" fill="none"></path></g><g stroke-linecap="round" transform="translate(66.24405126788906 699.093533012303) rotate(0 8.908496227603976 8.777821820014964)"><path d="M4.21 1.88 C5.72 0.98, 8.71 0.68, 10.64 1.09 C12.57 1.5, 14.66 3.07, 15.8 4.31 C16.94 5.55, 17.71 6.81, 17.48 8.54 C17.25 10.26, 15.76 13.34, 14.44 14.67 C13.13 16, 11.46 16.18, 9.6 16.51 C7.73 16.85, 4.73 17.61, 3.25 16.68 C1.77 15.76, 1.12 12.96, 0.7 10.95 C0.28 8.93, -0.31 6.32, 0.71 4.61 C1.74 2.9, 5.75 1.45, 6.85 0.68 C7.96 -0.1, 7.33 -0.26, 7.36 -0.04 M11.03 0.3 C12.91 0.55, 14.12 2.74, 15.26 3.96 C16.39 5.19, 17.8 6.1, 17.83 7.67 C17.86 9.25, 16.43 12.01, 15.42 13.42 C14.41 14.83, 13.27 15.85, 11.75 16.13 C10.23 16.41, 7.97 15.89, 6.31 15.09 C4.65 14.29, 2.71 12.91, 1.8 11.33 C0.9 9.76, 0.38 7.48, 0.89 5.63 C1.41 3.78, 3.58 1.39, 4.88 0.24 C6.19 -0.92, 7.71 -1.09, 8.73 -1.3 C9.74 -1.52, 11.02 -1.2, 10.97 -1.04" stroke="#000000" stroke-width="1" fill="none"></path></g><g stroke-linecap="round" transform="translate(91.02074209264248 699.093533012303) rotate(0 8.908496227603976 8.777821820014964)"><path d="M12.27 1.63 C14.04 2.24, 15.87 4.33, 16.69 5.76 C17.52 7.19, 17.81 8.54, 17.22 10.21 C16.63 11.88, 14.71 14.73, 13.15 15.79 C11.6 16.85, 9.76 16.58, 7.88 16.55 C6.01 16.53, 3.16 16.84, 1.91 15.63 C0.66 14.42, 0.42 11.37, 0.36 9.29 C0.3 7.2, 0.41 4.57, 1.53 3.13 C2.66 1.68, 5.2 0.98, 7.11 0.6 C9.03 0.22, 11.78 0.52, 13.01 0.84 C14.24 1.16, 14.47 2.42, 14.49 2.53 M9.67 1.21 C11.32 1.14, 14.1 0.97, 15.35 2.02 C16.61 3.08, 16.94 5.73, 17.21 7.52 C17.48 9.31, 17.75 11.36, 16.97 12.74 C16.19 14.12, 14.33 15.29, 12.52 15.8 C10.7 16.31, 7.97 16.47, 6.09 15.8 C4.22 15.13, 2.08 13.55, 1.26 11.78 C0.44 10.01, 0.92 7.12, 1.16 5.17 C1.39 3.23, 1.04 1.19, 2.65 0.12 C4.27 -0.95, 9.88 -1.03, 10.83 -1.24 C11.79 -1.44, 8.71 -1.54, 8.38 -1.09" stroke="#000000" stroke-width="1" fill="none"></path></g><g stroke-linecap="round"><g transform="translate(10.459002901783307 837.8319020659467) rotate(0 241.37022014890806 1.7674599730810314)"><path d="M1.01 -0.8 C1.48 -11.7, 1.54 -43.88, 1.67 -65.32 C1.8 -86.76, 0.74 -114.38, 1.81 -129.44 C2.87 -144.5, 2.61 -150.52, 8.06 -155.68 C13.51 -160.84, 10.69 -159.88, 34.51 -160.42 C58.34 -160.95, 105.63 -158.94, 151 -158.87 C196.38 -158.8, 256.51 -160.13, 306.74 -159.99 C356.97 -159.86, 423.98 -159.12, 452.39 -158.04 C480.81 -156.96, 472.28 -158.57, 477.22 -153.52 C482.15 -148.47, 481.21 -143.19, 482.02 -127.72 C482.83 -112.26, 482.24 -83.19, 482.1 -60.74 C481.95 -38.28, 481.22 -14.48, 481.14 6.99 C481.06 28.46, 481.54 46.77, 481.62 68.09 C481.7 89.41, 481.94 119.39, 481.62 134.9 C481.3 150.4, 484.53 156.2, 479.71 161.11 C474.88 166.02, 478.38 164.16, 452.69 164.35 C427 164.54, 376.48 162.96, 325.57 162.26 C274.66 161.57, 195.79 160.57, 147.22 160.18 C98.66 159.8, 57.89 160.45, 34.17 159.96 C10.46 159.46, 10.42 162.18, 4.94 157.22 C-0.53 152.26, 2.12 145.35, 1.33 130.2 C0.53 115.05, 0.29 88.16, 0.18 66.3 C0.06 44.45, 0.85 10.3, 0.65 -0.93 M0.08 1.39 C0.59 -9.34, 1.06 -42.35, 1.31 -63.96 C1.56 -85.57, 0.34 -113.14, 1.59 -128.27 C2.84 -143.41, 3.04 -149.39, 8.82 -154.78 C14.59 -160.17, 12.33 -159.74, 36.25 -160.64 C60.17 -161.53, 107.26 -160.56, 152.35 -160.15 C197.44 -159.74, 256.87 -158.51, 306.77 -158.18 C356.66 -157.85, 423.02 -158.73, 451.72 -158.18 C480.42 -157.64, 473.86 -159.97, 478.96 -154.91 C484.07 -149.84, 481.73 -143.61, 482.33 -127.78 C482.94 -111.95, 482.44 -82.39, 482.59 -59.94 C482.73 -37.49, 483.24 -14.3, 483.2 6.93 C483.16 28.15, 482.78 46.1, 482.35 67.42 C481.93 88.74, 480.98 119.3, 480.66 134.84 C480.35 150.38, 484.96 156.05, 480.46 160.65 C475.96 165.24, 479.67 162.08, 453.65 162.43 C427.63 162.78, 375.04 163.09, 324.32 162.73 C273.61 162.37, 197.88 160.78, 149.35 160.27 C100.82 159.77, 57.64 160, 33.15 159.7 C8.66 159.4, 7.79 163.03, 2.39 158.47 C-3.02 153.9, 0.99 147.33, 0.71 132.32 C0.42 117.3, 0.63 90.2, 0.67 68.37 C0.71 46.55, 1.07 12.58, 0.96 1.37" stroke="#000000" stroke-width="1" fill="none"></path></g></g><mask></mask><g stroke-linecap="round"><g transform="translate(298.987733048675 695.1162556572054) rotate(0 2.067416314841495 10.512245268110945)"><path d="M1.12 -0.34 C25.23 -0.26, 118.05 -1.05, 145.67 -0.28 C173.29 0.49, 163.62 1.17, 166.84 4.28 C170.07 7.39, 168.66 15.61, 165.02 18.36 C161.37 21.11, 172.66 20.37, 144.96 20.76 C117.26 21.15, 45.25 20.55, -1.18 20.69 C-47.6 20.83, -107.02 21.51, -133.57 21.6 C-160.12 21.68, -155.68 23.84, -160.46 21.22 C-165.23 18.59, -165.74 9.45, -162.22 5.85 C-158.7 2.26, -166.32 0.51, -139.34 -0.35 C-112.36 -1.22, -23.74 0.57, -0.36 0.68 M0.24 -1.57 C24.2 -1.23, 117.54 -0.05, 145.26 1.11 C172.98 2.27, 163.32 2.44, 166.58 5.39 C169.84 8.35, 168.67 16.26, 164.81 18.85 C160.95 21.44, 170.95 20.25, 143.42 20.92 C115.89 21.58, 45.62 22.89, -0.38 22.81 C-46.38 22.74, -105.69 20.77, -132.58 20.45 C-159.47 20.13, -157.04 23.47, -161.72 20.87 C-166.41 18.28, -164.58 8.52, -160.69 4.87 C-156.8 1.23, -165.15 0.09, -138.41 -0.99 C-111.66 -2.08, -23.31 -1.8, -0.23 -1.63" stroke="#000000" stroke-width="1" fill="none"></path></g></g><mask></mask><g stroke-opacity="0" fill-opacity="0" stroke-linecap="round" transform="translate(981.8040229589326 737.6213384181642) rotate(0 100.37866158183567 100.37866158183567)"><path d="M116.03 1.43 C128.29 1.97, 142.3 7.96, 153.2 14.7 C164.09 21.44, 173.92 31.29, 181.4 41.86 C188.88 52.43, 195.15 65.45, 198.08 78.12 C201.02 90.78, 200.95 105.18, 199 117.86 C197.06 130.55, 193.28 143.58, 186.44 154.22 C179.59 164.86, 168.37 174.45, 157.94 181.69 C147.5 188.93, 136.26 194.81, 123.84 197.69 C111.41 200.56, 96.07 201.13, 83.38 198.94 C70.69 196.76, 58.31 191.43, 47.68 184.59 C37.05 177.75, 27.1 168.22, 19.61 157.91 C12.11 147.6, 5.75 134.95, 2.7 122.72 C-0.35 110.48, -0.9 97.23, 1.31 84.48 C3.52 71.72, 9.16 57.07, 15.98 46.19 C22.81 35.3, 31.79 26.38, 42.24 19.18 C52.69 11.98, 64.54 5.72, 78.66 3.01 C92.77 0.29, 117.22 1.71, 126.92 2.87 C136.61 4.02, 137.11 8.28, 136.82 9.93 M99.53 -1.15 C111.69 -2.58, 127.85 3.7, 139.71 8.82 C151.57 13.93, 162.07 20.61, 170.71 29.56 C179.34 38.52, 186.44 51.09, 191.51 62.57 C196.59 74.05, 200.7 86.06, 201.14 98.42 C201.59 110.78, 198.95 124.52, 194.19 136.75 C189.44 148.97, 181.55 162.67, 172.63 171.79 C163.71 180.91, 152.63 186.46, 140.67 191.45 C128.71 196.45, 113.74 201.58, 100.87 201.75 C88 201.91, 75.27 197.24, 63.47 192.45 C51.66 187.66, 39.16 181.66, 30.04 172.98 C20.91 164.31, 13.55 152.64, 8.71 140.4 C3.86 128.16, 1.05 112.37, 0.97 99.55 C0.89 86.74, 3.69 75.39, 8.24 63.53 C12.78 51.68, 19.24 37.91, 28.26 28.43 C37.28 18.94, 50.32 11.57, 62.37 6.62 C74.41 1.66, 94.3 -0.32, 100.54 -1.3 C106.77 -2.29, 99.91 -0.96, 99.78 0.72" stroke="#1e1e1e" stroke-width="1" fill="none"></path></g><g stroke-linecap="round" transform="translate(1025.2850989254391 750.6725293837994) rotate(0 56.4957236731658 56.495723673165855)"><path d="M32.54 4.57 C40.37 0.05, 51.63 -1.03, 61.06 -0.01 C70.48 1.01, 81.34 5.07, 89.08 10.7 C96.82 16.34, 103.38 25.21, 107.48 33.82 C111.58 42.44, 114.63 53.24, 113.7 62.39 C112.76 71.55, 107.32 81.27, 101.87 88.76 C96.41 96.25, 89.47 103.42, 80.96 107.34 C72.46 111.27, 60.26 113.26, 50.82 112.31 C41.38 111.37, 31.78 107.18, 24.33 101.68 C16.87 96.18, 10.1 87.76, 6.11 79.32 C2.12 70.87, -0.32 60.15, 0.38 51.01 C1.09 41.87, 4.15 32.58, 10.35 24.5 C16.55 16.43, 32.43 5.99, 37.6 2.54 C42.77 -0.91, 41.04 2.69, 41.38 3.81 M38.37 3.9 C46.56 0.16, 56.02 -0.76, 65.34 0.84 C74.65 2.45, 86.92 7.65, 94.26 13.51 C101.6 19.38, 106.13 27.01, 109.36 36.05 C112.59 45.09, 115.26 58.18, 113.62 67.74 C111.99 77.3, 106.08 86.26, 99.55 93.43 C93.02 100.6, 83.18 107.88, 74.43 110.77 C65.68 113.66, 55.95 112.87, 47.05 110.79 C38.14 108.71, 28.14 103.97, 21 98.29 C13.87 92.6, 7.37 85.51, 4.23 76.67 C1.09 67.83, 0.69 54.49, 2.17 45.24 C3.64 35.99, 7.11 28.28, 13.1 21.15 C19.1 14.03, 34.01 5.08, 38.12 2.5 C42.23 -0.09, 37.47 4.44, 37.78 5.65" stroke="#1e1e1e" stroke-width="1" fill="none"></path></g><g stroke-linecap="round" transform="translate(1050.577588355762 751.7722028372912) rotate(0 31.065775061156728 55.808427764733096)"><path d="M31.12 -0.24 C36.49 -0.64, 43.7 4.07, 48.39 9.9 C53.08 15.74, 56.89 25.46, 59.27 34.77 C61.64 44.07, 63.64 56.04, 62.65 65.74 C61.66 75.43, 57.11 85.71, 53.33 92.96 C49.56 100.21, 45.35 106.63, 39.99 109.22 C34.63 111.82, 26.58 111.66, 21.18 108.52 C15.79 105.38, 10.95 98.22, 7.62 90.41 C4.28 82.59, 1.91 71.52, 1.19 61.65 C0.46 51.78, 1 39.97, 3.27 31.17 C5.55 22.36, 9.81 14.17, 14.85 8.83 C19.89 3.49, 30.35 0.28, 33.51 -0.88 C36.67 -2.04, 33.83 0.7, 33.82 1.86 M21.63 3.86 C26.54 -0.06, 31.43 -0.83, 36.93 1.36 C42.43 3.54, 50.59 9.97, 54.65 16.96 C58.7 23.94, 60.09 33.22, 61.24 43.25 C62.4 53.29, 63.57 67.47, 61.57 77.16 C59.58 86.84, 54.25 95.44, 49.26 101.37 C44.28 107.29, 37.15 112.37, 31.66 112.68 C26.17 112.99, 20.86 108.56, 16.34 103.23 C11.81 97.89, 7.09 89.17, 4.52 80.67 C1.95 72.17, 0.41 62.25, 0.93 52.23 C1.46 42.22, 4.42 28.55, 7.66 20.57 C10.89 12.59, 18 7.19, 20.32 4.35 C22.65 1.5, 21.36 2.6, 21.59 3.51" stroke="#1e1e1e" stroke-width="1" fill="none"></path></g><g stroke-linecap="round"><g transform="translate(1081.368445053545 750.3976110204262) rotate(0 0.14764697290956974 55.30037544594711)"><path d="M0.06 -0.49 C0.12 18.25, -0.63 92.55, -0.69 111.31 M-1.37 -1.79 C-0.83 17.18, 1.64 93.21, 1.66 112.39" stroke="#1e1e1e" stroke-width="1" fill="none"></path></g></g><mask></mask><g stroke-linecap="round"><g transform="translate(1032.7078947365123 778.4392840844796) rotate(0 47.6117453150232 0.30513132001394183)"><path d="M-0.69 -0.86 C15.29 -0.8, 79.7 -0.2, 95.91 -0.13 M1.15 1.3 C16.94 1.59, 79 1.44, 94.8 1.33" stroke="#1e1e1e" stroke-width="1" fill="none"></path></g></g><mask></mask><g stroke-linecap="round"><g transform="translate(1034.2156846715777 836.4854629094633) rotate(0 48.12430583757953 -0.19425154365598019)"><path d="M-0.31 -0.13 C15.9 -0.06, 80.29 -0.66, 96.56 -0.44 M1.73 -1.25 C17.87 -0.94, 79.9 0.75, 95.79 0.86" stroke="#1e1e1e" stroke-width="1" fill="none"></path></g></g><mask></mask><g stroke-linecap="round"><g transform="translate(1025.562018506025 808.3008150980904) rotate(0 56.13691201849451 -0.2915293858312964)"><path d="M0.34 -0.44 C19.26 -0.23, 94.46 1.21, 113.22 1.14 M-0.94 -1.72 C17.94 -1.8, 93.91 -0.68, 112.82 -0.38" stroke="#1e1e1e" stroke-width="1" fill="none"></path></g></g><mask></mask><g transform="translate(1010.1514250072373 868.7794817471716) rotate(0 71.04623413085938 21.493011928922897)"><text x="71.04623413085938" y="0" font-family="Virgil, Segoe UI Emoji" font-size="34.388819086276634px" fill="#1e1e1e" text-anchor="middle" style="white-space: pre;" direction="ltr" dominant-baseline="text-before-edge">Internet</text></g><g stroke-linecap="round"><g transform="translate(510.1826845407682 825.9999999999997) rotate(0 249.0426179649029 -3.6538931567220914)"><path d="M0.32 1.1 C83.33 -0.25, 416.11 -6.75, 499.06 -8.41 M-0.97 0.63 C81.89 -0.53, 415.63 -5.65, 498.67 -7.08" stroke="#1e1e1e" stroke-width="1" fill="none"></path></g><g transform="translate(510.1826845407682 825.9999999999997) rotate(0 249.0426179649029 -3.6538931567220914)"><path d="M472.48 5.39 C480.67 -0.54, 490.63 -5.68, 496.87 -6.1 M470.9 3.88 C480.03 -0.05, 487.24 -3.42, 498.05 -7.37" stroke="#1e1e1e" stroke-width="1" fill="none"></path></g><g transform="translate(510.1826845407682 825.9999999999997) rotate(0 249.0426179649029 -3.6538931567220914)"><path d="M472.14 -15.12 C480.41 -13.25, 490.5 -10.56, 496.87 -6.1 M470.57 -16.64 C479.67 -14.47, 486.97 -11.74, 498.05 -7.37" stroke="#1e1e1e" stroke-width="1" fill="none"></path></g></g><mask></mask><g stroke-linecap="round"><g transform="translate(1158.1826845407682 819.9999999999997) rotate(0 227.98508245691664 -0.9600481849162747)"><path d="M0.55 0.49 C76.8 0.2, 380.74 -1.82, 456.59 -2.41 M-0.62 -0.3 C75.6 -0.36, 380.07 -0.76, 455.96 -1.09" stroke="#1e1e1e" stroke-width="1" fill="none"></path></g><g transform="translate(1158.1826845407682 819.9999999999997) rotate(0 227.98508245691664 -0.9600481849162747)"><path d="M428.61 10.24 C433.52 6.18, 438.82 3.76, 455.5 0.77 M427.7 8.97 C433.45 7.13, 439.91 5.39, 455.87 -1.98" stroke="#1e1e1e" stroke-width="1" fill="none"></path></g><g transform="translate(1158.1826845407682 819.9999999999997) rotate(0 227.98508245691664 -0.9600481849162747)"><path d="M428.55 -10.29 C433.37 -9.71, 438.68 -7.5, 455.5 0.77 M427.65 -11.55 C433.37 -8.63, 439.84 -5.6, 455.87 -1.98" stroke="#1e1e1e" stroke-width="1" fill="none"></path></g></g><mask></mask><g stroke-linecap="round"><g transform="translate(1616.1826845407682 905.9999999999997) rotate(0 -554.1537643225864 79.96297725872233)"><path d="M-0.56 -1.18 C-81.61 25.84, -300.2 158.85, -484.31 161.04 C-668.43 163.24, -1002.3 36.58, -1105.26 11.97 M-4.31 -4.28 C-85.94 23.22, -302.81 161.11, -486.72 164.15 C-670.63 167.2, -1005.46 38.72, -1107.75 13.98" stroke="#1e1e1e" stroke-width="4" fill="none"></path></g><g transform="translate(1616.1826845407682 905.9999999999997) rotate(0 -554.1537643225864 79.96297725872233)"><path d="M-1079.47 11.92 C-1090.27 11.05, -1102.9 16.19, -1108.59 14.92 M-1076.12 12.09 C-1086.73 12.65, -1097.47 13.4, -1106.97 13.22" stroke="#1e1e1e" stroke-width="4" fill="none"></path></g><g transform="translate(1616.1826845407682 905.9999999999997) rotate(0 -554.1537643225864 79.96297725872233)"><path d="M-1085.44 31.55 C-1093.88 23.43, -1104.3 21.29, -1108.59 14.92 M-1082.09 31.72 C-1091.08 25.8, -1099.87 20.1, -1106.97 13.22" stroke="#1e1e1e" stroke-width="4" fill="none"></path></g></g><mask></mask><g stroke-linecap="round" transform="translate(876.1826845407682 10) rotate(0 183 100.99999999999994)"><path d="M32 0 M32 0 C124.38 1.05, 214.81 0.58, 334 0 M32 0 C124.56 -5.22, 218.49 -3.79, 334 0 M334 0 C352.65 -0.06, 369.93 7.39, 366 32 M334 0 C359.02 0.79, 362.39 12.46, 366 32 M366 32 C361.24 76.69, 365.03 124.6, 366 170 M366 32 C368.45 63.07, 367.14 94.17, 366 170 M366 170 C365.95 192.58, 358.37 202.74, 334 202 M366 170 C362.84 195.22, 353.69 201.88, 334 202 M334 202 C215.1 201.93, 93.56 202.06, 32 202 M334 202 C251.7 198.06, 168.91 198.98, 32 202 M32 202 C7.98 199.4, 2.11 188.28, 0 170 M32 202 C6.52 199.81, -3.93 191.88, 0 170 M0 170 C-2.66 119.7, 3.5 72.51, 0 32 M0 170 C-0.21 137.71, -0.22 109.12, 0 32 M0 32 C1.75 6.86, 8.27 1.79, 32 0 M0 32 C0.72 6.74, 12.71 1.11, 32 0" stroke="#1e1e1e" stroke-width="4" fill="none"></path></g><g transform="translate(931.8687196970182 65.99999999999994) rotate(0 127.31396484375 45)"><text x="127.31396484375" y="0" font-family="Virgil, Segoe UI Emoji" font-size="36px" fill="#1e1e1e" text-anchor="middle" style="white-space: pre;" direction="ltr" dominant-baseline="text-before-edge">Certificate</text><text x="127.31396484375" y="45" font-family="Virgil, Segoe UI Emoji" font-size="36px" fill="#1e1e1e" text-anchor="middle" style="white-space: pre;" direction="ltr" dominant-baseline="text-before-edge">Authority (CA)</text></g><g stroke-linecap="round"><g transform="translate(424.1826845407682 657.9999999999999) rotate(0 215.3694735292345 -220.14327032007276)"><path d="M0.78 1.65 C72.38 -72.43, 357.69 -368.65, 429.96 -441.94" stroke="#1e1e1e" stroke-width="4.5" fill="none" stroke-dasharray="1.5 10"></path></g><g transform="translate(424.1826845407682 657.9999999999999) rotate(0 215.3694735292345 -220.14327032007276)"><path d="M420.02 -417.49 C418.23 -419.71, 427.58 -433.14, 431.95 -438.77" stroke="#1e1e1e" stroke-width="4.5" fill="none" stroke-dasharray="1.5 8"></path></g><g transform="translate(424.1826845407682 657.9999999999999) rotate(0 215.3694735292345 -220.14327032007276)"><path d="M405.31 -431.8 C408.38 -429.63, 422.32 -438.59, 431.95 -438.77" stroke="#1e1e1e" stroke-width="4.5" fill="none" stroke-dasharray="1.5 8"></path></g></g><mask></mask><g stroke-linecap="round"><g transform="translate(1682.1826845407682 695.9999999999999) rotate(0 -208.82119641937322 -240.57235956154764)"><path d="M2.18 1.49 C-67.71 -79.22, -349.77 -401.68, -419.82 -482.63" stroke="#1e1e1e" stroke-width="4.5" fill="none" stroke-dasharray="1.5 10"></path></g><g transform="translate(1682.1826845407682 695.9999999999999) rotate(0 -208.82119641937322 -240.57235956154764)"><path d="M-391.45 -467.85 C-402.06 -469.11, -411.71 -477.46, -419.78 -484.22" stroke="#1e1e1e" stroke-width="4.5" fill="none" stroke-dasharray="1.5 8"></path></g><g transform="translate(1682.1826845407682 695.9999999999999) rotate(0 -208.82119641937322 -240.57235956154764)"><path d="M-406.92 -454.38 C-413.32 -459.68, -418.6 -471.84, -419.78 -484.22" stroke="#1e1e1e" stroke-width="4.5" fill="none" stroke-dasharray="1.5 8"></path></g></g><mask></mask><g stroke-linecap="round" transform="translate(1518.1826845407682 973.9999999999997) rotate(0 78 106)"><path d="M-1.15 0.34 C28.22 1.46, 66.16 1.58, 155.52 -2.79 M1.01 0.85 C43.64 0.37, 92.83 -1.48, 157.3 -0.13 M157.95 -2.39 C154.61 78.95, 154.82 167.55, 157.58 208.94 M154.73 0.17 C159 73.33, 156.34 146.74, 155.53 213.01 M156.68 211.4 C101.19 214.63, 43.77 209.91, 0.59 211.22 M157.37 213.15 C113.5 208.55, 76.37 210.86, -0.25 210.35 M2.46 214.52 C3 142.24, 3.6 72.78, -0.58 1.02 M-0.26 210.85 C-5.14 168.17, -3.62 124.74, 1.38 1.33" stroke="#1e1e1e" stroke-width="4" fill="none"></path></g><g transform="translate(1537.8227449655728 1029.9999999999995) rotate(0 58.35993957519531 50)"><text x="58.35993957519531" y="0" font-family="Virgil, Segoe UI Emoji" font-size="20px" fill="#1e1e1e" text-anchor="middle" style="white-space: pre;" direction="ltr" dominant-baseline="text-before-edge">Digital</text><text x="58.35993957519531" y="25" font-family="Virgil, Segoe UI Emoji" font-size="20px" fill="#1e1e1e" text-anchor="middle" style="white-space: pre;" direction="ltr" dominant-baseline="text-before-edge">Certificate</text><text x="58.35993957519531" y="50" font-family="Virgil, Segoe UI Emoji" font-size="20px" fill="#1e1e1e" text-anchor="middle" style="white-space: pre;" direction="ltr" dominant-baseline="text-before-edge">Of</text><text x="58.35993957519531" y="75" font-family="Virgil, Segoe UI Emoji" font-size="20px" fill="#1e1e1e" text-anchor="middle" style="white-space: pre;" direction="ltr" dominant-baseline="text-before-edge">Authenticity</text></g><g stroke-linecap="round"><g transform="translate(1274.1826845407682 109.99999999999989) rotate(0 251.7609629325566 293.8384859051556)"><path d="M-0.09 -0.51 C145.1 165.25, 287.53 331.43, 502.65 586.83 M-0.28 -0.51 C201.6 231.53, 399.78 462.19, 503.8 588.19" stroke="#1e1e1e" stroke-width="4" fill="none"></path></g><g transform="translate(1274.1826845407682 109.99999999999989) rotate(0 251.7609629325566 293.8384859051556)"><path d="M477.58 571.91 C485.87 580.77, 493.36 585.23, 500.42 585.26 M477.12 571.93 C488.74 579.19, 499.82 584.71, 503.29 588.67" stroke="#1e1e1e" stroke-width="4" fill="none"></path></g><g transform="translate(1274.1826845407682 109.99999999999989) rotate(0 251.7609629325566 293.8384859051556)"><path d="M493.3 558.72 C497.29 571.49, 500.34 579.66, 500.42 585.26 M492.84 558.73 C498.49 571.12, 503.4 581.81, 503.29 588.67" stroke="#1e1e1e" stroke-width="4" fill="none"></path></g></g><mask></mask><g transform="translate(438.1826845407682 389.4999999999999) rotate(0 84.57992553710938 12.5)"><text x="0" y="0" font-family="Virgil, Segoe UI Emoji" font-size="20px" fill="#1e1e1e" text-anchor="start" style="white-space: pre;" direction="ltr" dominant-baseline="text-before-edge">Client Trusts CA</text></g><g transform="translate(1239.6027590036588 409.4999999999999) rotate(0 88.37992095947266 12.5)"><text x="0" y="0" font-family="Virgil, Segoe UI Emoji" font-size="20px" fill="#1e1e1e" text-anchor="start" style="white-space: pre;" direction="ltr" dominant-baseline="text-before-edge">Server Trusts CA</text></g><g transform="translate(1612.272741913815 393.9999999999999) rotate(0 53.909942626953125 25)"><text x="53.909942626953125" y="0" font-family="Virgil, Segoe UI Emoji" font-size="20px" fill="#1e1e1e" text-anchor="middle" style="white-space: pre;" direction="ltr" dominant-baseline="text-before-edge">CA Issues</text><text x="53.909942626953125" y="25" font-family="Virgil, Segoe UI Emoji" font-size="20px" fill="#1e1e1e" text-anchor="middle" style="white-space: pre;" direction="ltr" dominant-baseline="text-before-edge">Certificate</text></g><g transform="translate(148.31270468237 601.9999999999999) rotate(0 37.86997985839844 17.5)"><text x="37.86997985839844" y="0" font-family="Virgil, Segoe UI Emoji" font-size="28px" fill="#1e1e1e" text-anchor="middle" style="white-space: pre;" direction="ltr" dominant-baseline="text-before-edge">Client</text></g><g transform="translate(1818.992704987545 635.9999999999999) rotate(0 43.189979553222656 17.5)"><text x="43.189979553222656" y="0" font-family="Virgil, Segoe UI Emoji" font-size="28px" fill="#1e1e1e" text-anchor="middle" style="white-space: pre;" direction="ltr" dominant-baseline="text-before-edge">Server</text></g><g transform="translate(1016.6727434396939 1011.9999999999997) rotate(0 75.50994110107422 12.5)"><text x="75.50994110107422" y="0" font-family="Virgil, Segoe UI Emoji" font-size="20px" fill="#1e1e1e" text-anchor="middle" style="white-space: pre;" direction="ltr" dominant-baseline="text-before-edge">Data Response</text></g><g transform="translate(634.4527345895963 767.4999999999999) rotate(0 71.72994995117188 12.5)"><text x="71.72994995117188" y="0" font-family="Virgil, Segoe UI Emoji" font-size="20px" fill="#1e1e1e" text-anchor="middle" style="white-space: pre;" direction="ltr" dominant-baseline="text-before-edge">Data Request</text></g></svg>