<?xml version="1.0" encoding="UTF-8" standalone="no"?>
<!-- Created with Inkscape (http://www.inkscape.org/) -->

<svg
   width="500"
   height="500"
   viewBox="0 0 132.29166 132.29167"
   version="1.1"
   id="svg1"
   inkscape:version="1.3.1 (91b66b0783, 2023-11-16)"
   sodipodi:docname="Logo_mk2.svg"
   inkscape:export-filename="Logo_mk2.png"
   inkscape:export-xdpi="96"
   inkscape:export-ydpi="96"
   xmlns:inkscape="http://www.inkscape.org/namespaces/inkscape"
   xmlns:sodipodi="http://sodipodi.sourceforge.net/DTD/sodipodi-0.dtd"
   xmlns:xlink="http://www.w3.org/1999/xlink"
   xmlns="http://www.w3.org/2000/svg"
   xmlns:svg="http://www.w3.org/2000/svg">
  <sodipodi:namedview
     id="namedview1"
     pagecolor="#ffffff"
     bordercolor="#666666"
     borderopacity="1.0"
     inkscape:showpageshadow="2"
     inkscape:pageopacity="0.0"
     inkscape:pagecheckerboard="0"
     inkscape:deskcolor="#d1d1d1"
     inkscape:document-units="px"
     inkscape:zoom="1.4778115"
     inkscape:cx="402.96073"
     inkscape:cy="253.75361"
     inkscape:window-width="2558"
     inkscape:window-height="1360"
     inkscape:window-x="2553"
     inkscape:window-y="0"
     inkscape:window-maximized="0"
     inkscape:current-layer="layer1" />
  <defs
     id="defs1">
    <inkscape:path-effect
       effect="simplify"
       id="path-effect12"
       is_visible="true"
       lpeversion="1.3"
       threshold="55.3862"
       steps="1"
       smooth_angles="360"
       helper_size="0"
       simplify_individual_paths="false"
       simplify_just_coalesce="false" />
    <inkscape:path-effect
       effect="simplify"
       id="path-effect10"
       is_visible="true"
       lpeversion="1.3"
       threshold="55.3862"
       steps="1"
       smooth_angles="360"
       helper_size="0"
       simplify_individual_paths="false"
       simplify_just_coalesce="false" />
    <inkscape:path-effect
       effect="simplify"
       id="path-effect7"
       is_visible="true"
       lpeversion="1.3"
       threshold="55.3862"
       steps="1"
       smooth_angles="360"
       helper_size="0"
       simplify_individual_paths="false"
       simplify_just_coalesce="false" />
    <inkscape:path-effect
       effect="simplify"
       id="path-effect5"
       is_visible="true"
       lpeversion="1.3"
       threshold="55.3862"
       steps="1"
       smooth_angles="360"
       helper_size="0"
       simplify_individual_paths="false"
       simplify_just_coalesce="false" />
    <clipPath
       clipPathUnits="userSpaceOnUse"
       id="clipPath2">
      <path
         d="M 0,800 H 1200 V 0 H 0 Z"
         transform="translate(-1023.127,-347.33011)"
         id="path2" />
    </clipPath>
    <clipPath
       clipPathUnits="userSpaceOnUse"
       id="clipPath4">
      <path
         d="M 0,800 H 1200 V 0 H 0 Z"
         transform="translate(-385.00241,-339.58201)"
         id="path4" />
    </clipPath>
    <clipPath
       clipPathUnits="userSpaceOnUse"
       id="clipPath6">
      <path
         d="M 0,800 H 1200 V 0 H 0 Z"
         transform="translate(-505.32322,-354.41111)"
         id="path6" />
    </clipPath>
  </defs>
  <g
     inkscape:label="Layer 1"
     inkscape:groupmode="layer"
     id="layer1">
    <path
       id="path1"
       d="m -288.684,-21.883 c -4.088,-2.566 -8.323,-2.714 -12.664,-0.518 -3.227,1.632 -5.624,4.07 -7.443,7.151 -2.608,4.42 -3.611,9.279 -3.556,14.308 0.059,5.179 0.488,10.354 0.765,15.53 0.176,3.275 0.395,6.549 0.542,9.825 0.041,0.913 -0.106,1.835 -0.162,2.659 -0.852,0.332 -1.231,-0.129 -1.569,-0.484 -1.894,-1.992 -3.872,-3.922 -5.609,-6.046 -8.657,-10.591 -16.387,-21.829 -23.223,-33.681 -1.48,-2.565 -2.954,-5.137 -4.523,-7.649 -0.838,-1.34 -1.826,-2.595 -2.832,-3.817 -0.961,-1.168 -2.254,-1.587 -3.71,-1.082 -0.99,0.343 -1.973,0.759 -2.88,1.279 -1.894,1.084 -2.84,2.729 -2.828,4.965 0.018,2.984 0.522,5.899 1.095,8.806 2.848,14.449 6.883,28.579 11.43,42.574 3.857,11.871 7.868,23.698 11.361,35.675 3.464,11.876 6.385,23.91 9.502,35.887 0.72,2.768 1.159,5.597 1.159,8.472 0,0.834 -0.104,1.669 -0.173,2.712 -0.743,-0.208 -1.412,-0.237 -1.886,-0.557 -1.837,-1.239 -3.706,-2.46 -5.392,-3.89 -3.889,-3.296 -7.302,-7.074 -10.373,-11.131 -2.874,-3.794 -5.678,-7.65 -8.333,-11.6 -12.135,-18.053 -22.129,-37.265 -31.192,-57.021 -13.225,-28.831 -23.429,-58.728 -32.326,-89.116 -1.188,-4.058 -2.508,-8.08 -3.84,-12.095 -0.396,-1.195 -0.961,-2.355 -1.592,-3.449 -0.853,-1.479 -1.851,-1.815 -3.492,-1.225 -3.428,1.232 -5.206,3.066 -5.038,6.795 0.176,3.904 0.486,7.813 0.96,11.693 1.554,12.714 4.081,25.271 6.291,37.879 2.067,11.777 4.151,23.553 5.177,35.477 1.094,12.708 0.982,25.377 -1.646,37.928 -0.739,3.529 -1.748,6.979 -3.223,10.276 -0.475,1.06 -1.018,2.095 -1.598,3.101 -2.458,4.262 -6.214,6.466 -11.052,7.065 -5.536,0.685 -10.985,0.134 -16.409,-0.93 -11.471,-2.251 -22.501,-5.909 -33.149,-10.678 -5.499,-2.463 -10.843,-5.274 -16.258,-7.924 -1.234,-0.604 -2.437,-1.298 -3.72,-1.772 -3.606,-1.334 -7.184,0.282 -9.044,2.236 -1.31,1.377 -0.996,2.689 0.78,3.476 0.384,0.171 0.796,0.281 1.201,0.402 10.753,3.199 21.236,7.173 31.754,11.051 8.14,3.001 16.376,5.716 24.864,7.587 4.455,0.982 8.947,1.676 13.526,1.548 4.492,-0.126 8.806,-1.052 12.908,-2.932 5.767,-2.643 10.22,-6.698 13.35,-12.222 2.526,-4.459 4.201,-9.244 5.393,-14.196 1.663,-6.912 2.6,-13.925 2.815,-21.042 0.354,-11.68 -0.528,-23.274 -2.422,-34.786 -1.562,-9.496 -3.35,-18.956 -5.033,-28.434 -0.09,-0.508 -0.127,-1.024 -0.256,-2.091 0.882,1.132 1.122,1.956 1.407,2.778 2.912,8.394 5.684,16.842 8.793,25.163 10.047,26.89 21.517,53.147 35.611,78.197 5.397,9.594 11.18,18.959 17.541,27.956 3.795,5.368 7.843,10.532 12.65,15.041 1.693,1.588 3.45,3.161 5.388,4.42 5.764,3.746 12.483,0.864 13.967,-5.863 0.601,-2.725 0.531,-5.458 0.22,-8.21 -0.759,-6.745 -2.376,-13.323 -3.777,-19.946 -4.079,-19.281 -9.825,-38.088 -15.854,-56.827 -3.206,-9.966 -6.059,-20.045 -9.062,-30.077 -0.236,-0.792 -0.392,-1.608 -0.618,-2.551 1.079,0.063 1.251,0.892 1.597,1.424 5.082,7.812 10.422,15.444 16.15,22.79 2.989,3.834 6.235,7.472 9.454,11.12 0.968,1.096 2.185,1.997 3.377,2.864 1.571,1.143 3.3,1.25 5.123,0.526 2.846,-1.13 4.85,-3.001 5.466,-6.086 0.267,-1.343 0.525,-2.72 0.52,-4.08 -0.01,-3.596 -0.103,-7.194 -0.283,-10.786 -0.224,-4.438 -0.615,-8.869 -0.844,-13.308 -0.163,-3.171 -0.17,-6.344 0.45,-9.492 0.475,-2.418 1.286,-4.697 2.663,-6.741 1.778,-2.64 3.451,-3.243 6.52,-2.536 2.324,0.536 4.415,1.591 6.15,3.162"
       style="fill:#000000;fill-opacity:1;fill-rule:nonzero;stroke:none;stroke-width:19.54555293;stroke-dasharray:none"
       transform="matrix(0.42455695,0,0,-0.40875313,245.49203,74.792476)"
       clip-path="url(#clipPath2)"
       sodipodi:nodetypes="cccccscccccccccssccsccccccscscccccscccccccccccscscccccccsccscccccccccccccccccccc" />
    <path
       id="path12"
       style="display:none;fill:none;stroke:#000000;stroke-width:6.573;stroke-dasharray:none"
       d="M 113.08504,88.920222 A 51.328613,51.328613 0 0 1 67.085492,117.47445 51.328613,51.328613 0 0 1 15.756876,66.145836 51.328613,51.328613 0 0 1 67.085492,14.817223 51.328613,51.328613 0 0 1 96.684753,24.21124" />
    <text
       xml:space="preserve"
       style="font-size:8.46667px;line-height:1.25;font-family:'Franklin Gothic Medium';-inkscape-font-specification:'Franklin Gothic Medium, ';letter-spacing:5.29167px;word-spacing:0px;stroke-width:0.264583"
       id="text12"><textPath
         xlink:href="#path12"
         startOffset="50%"
         id="textPath12"
         style="font-size:7.76111px"><tspan
           id="tspan12"
           style="font-size:7.76111px;text-align:center;letter-spacing:5.29167px;text-anchor:middle;stroke-width:0.264583"
           rotate="0 0 0 0 0 0 0 0 0 0 0 0 0">TECHNOLOGIST-MACROBERT.COM</tspan></textPath></text>
  </g>
</svg>
